<svg width="390" height="390" viewBox="0 0 390 390" fill="none" xmlns="http://www.w3.org/2000/svg">
<defs>
<linearGradient id="bg" x1="48" y1="42" x2="340" y2="348" gradientUnits="userSpaceOnUse">
<stop stop-color="#020B1A"/>
<stop offset="1" stop-color="#071A33"/>
</linearGradient>
<linearGradient id="frame" x1="61" y1="53" x2="331" y2="337" gradientUnits="userSpaceOnUse">
<stop stop-color="#5EE7FF"/>
<stop offset="0.5" stop-color="#38BDF8"/>
<stop offset="1" stop-color="#1D4ED8"/>
</linearGradient>
<linearGradient id="eyeStroke" x1="84" y1="130" x2="304" y2="265" gradientUnits="userSpaceOnUse">
<stop stop-color="#9FF4FF"/>
<stop offset="0.45" stop-color="#49D8FF"/>
<stop offset="1" stop-color="#2563EB"/>
</linearGradient>
<radialGradient id="iris" cx="0" cy="0" r="1" gradientUnits="userSpaceOnUse" gradientTransform="translate(195 195) rotate(90) scale(74)">
<stop stop-color="#C7FAFF"/>
<stop offset="0.34" stop-color="#67E8F9"/>
<stop offset="0.68" stop-color="#22D3EE"/>
<stop offset="1" stop-color="#1D4ED8"/>
</radialGradient>
<filter id="glow" x="61" y="111" width="268" height="168" filterUnits="userSpaceOnUse" color-interpolation-filters="sRGB">
<feFlood flood-opacity="0" result="BackgroundImageFix"/>
<feBlend mode="normal" in="SourceGraphic" in2="BackgroundImageFix" result="shape"/>
<feGaussianBlur stdDeviation="7" result="effect1_foregroundBlur"/>
</filter>
<clipPath id="panelClip">
<rect x="48" y="48" width="294" height="294" rx="78"/>
</clipPath>
</defs>
<rect x="48" y="48" width="294" height="294" rx="78" fill="url(#bg)"/>
<rect x="57" y="57" width="276" height="276" rx="69" stroke="url(#frame)" stroke-width="10"/>
<g clip-path="url(#panelClip)" opacity="0.6">
<path d="M86 92H158" stroke="#10345D" stroke-width="6" stroke-linecap="round"/>
<path d="M240 92H302" stroke="#10345D" stroke-width="6" stroke-linecap="round"/>
<path d="M88 302H150" stroke="#10345D" stroke-width="6" stroke-linecap="round"/>
<path d="M234 302H304" stroke="#10345D" stroke-width="6" stroke-linecap="round"/>
<path d="M100 72V128" stroke="#123A67" stroke-width="6" stroke-linecap="round"/>
<path d="M290 72V118" stroke="#123A67" stroke-width="6" stroke-linecap="round"/>
<path d="M94 264V320" stroke="#123A67" stroke-width="6" stroke-linecap="round"/>
<path d="M286 258V318" stroke="#123A67" stroke-width="6" stroke-linecap="round"/>
<path d="M100 112H132V144" stroke="#1A4B7D" stroke-width="5" stroke-linecap="round" stroke-linejoin="round"/>
<path d="M290 112H260V142" stroke="#1A4B7D" stroke-width="5" stroke-linecap="round" stroke-linejoin="round"/>
<path d="M100 278H132V246" stroke="#1A4B7D" stroke-width="5" stroke-linecap="round" stroke-linejoin="round"/>
<path d="M290 278H258V248" stroke="#1A4B7D" stroke-width="5" stroke-linecap="round" stroke-linejoin="round"/>
</g>
<g filter="url(#glow)" opacity="0.6">
<path d="M85 195C110 145 148 120 195 120C242 120 280 145 305 195C280 245 242 270 195 270C148 270 110 245 85 195Z" stroke="#60EFFF" stroke-width="14" stroke-linejoin="round"/>
</g>
<path d="M85 195C110 145 148 120 195 120C242 120 280 145 305 195C280 245 242 270 195 270C148 270 110 245 85 195Z" fill="#081A31" stroke="url(#eyeStroke)" stroke-width="12" stroke-linejoin="round"/>
<path d="M103 195C126 155 156 136 195 136C234 136 264 155 287 195" stroke="#9FF4FF" stroke-width="8" stroke-linecap="round" opacity="0.95"/>
<path d="M114 229C137 248 164 257 195 257C226 257 253 248 276 229" stroke="#1D4ED8" stroke-width="7" stroke-linecap="round" opacity="0.85"/>
<circle cx="195" cy="195" r="71" fill="url(#iris)"/>
<circle cx="195" cy="195" r="46" fill="#07111F"/>
<circle cx="195" cy="195" r="24" fill="#01060E"/>
<circle cx="223" cy="165" r="10" fill="white" fill-opacity="0.98"/>
<circle cx="163" cy="224" r="7" fill="#A5F3FC" fill-opacity="0.5"/>
<path d="M162 195H228" stroke="#A5F3FC" stroke-width="4" stroke-linecap="round" opacity="0.55"/>
<path d="M195 162V228" stroke="#38BDF8" stroke-width="4" stroke-linecap="round" opacity="0.35"/>
<path d="M121 169L138 177" stroke="#67E8F9" stroke-width="6" stroke-linecap="round"/>
<path d="M269 214L286 222" stroke="#67E8F9" stroke-width="6" stroke-linecap="round"/>
</svg>
